<?xml version="1.0"?>
<svg xmlns="http://www.w3.org/2000/svg" xmlns:xlink="http://www.w3.org/1999/xlink" viewBox="0 0 1120 140" width="1120" height="140">
  <defs>
    
  </defs>
  
  <svg x="0" y="5" width="124.5" height="130" viewBox="0 0 2628 2744">
    <defs><filter id="thicken" color-interpolation-filters="sRGB"><feMorphology in="SourceGraphic" operator="dilate" radius="7"></feMorphology></filter></defs><g filter="url(#thicken)">
<path fill-rule="nonzero" fill="none" fill-opacity="1" d="M 878.269531 1964.238281 L 1688.269531 1964.238281 L 1688.269531 987.738281 L 878.269531 987.738281 Z M 878.269531 1964.238281 "></path>
<path fill-rule="nonzero" fill="#e8e0d0" fill-opacity="1" d="M 741.476562 734.738281 L 743.859375 734.449219 C 662.140625 759.410156 579.1875 784.789062 490.535156 782.238281 C 401.886719 779.679688 307.878906 749.230469 234.328125 702.390625 C 160.808594 655.578125 107.773438 592.398438 85.234375 555.191406 C 73.734375 536.199219 69.5 522.898438 70.160156 512.300781 C 70.808594 501.859375 76.183594 495.28125 80.15625 490.261719 C 82.066406 487.851562 85.367188 487.019531 88.191406 488.25 C 128.96875 506.03125 168.789062 523.339844 212.792969 529.660156 C 256.832031 535.980469 305.332031 531.300781 342.09375 520.691406 C 378.628906 510.140625 403.644531 493.738281 429.40625 476.820312 C 432.539062 474.75 436.75 475.621094 438.808594 478.761719 C 440.867188 481.890625 439.996094 486.109375 436.863281 488.160156 C 411.089844 505.101562 384.5625 522.570312 345.859375 533.730469 C 307.382812 544.839844 256.941406 549.710938 210.863281 543.101562 C 164.753906 536.480469 123.28125 518.359375 82.765625 500.699219 L 90.800781 498.691406 C 86.734375 503.828125 84.070312 507.390625 83.710938 513.140625 C 83.3125 519.519531 85.773438 529.871094 96.847656 548.148438 C 118.390625 583.730469 169.996094 645.328125 241.621094 690.941406 C 313.21875 736.53125 404.859375 766.179688 490.929688 768.660156 C 576.992188 771.140625 657.828125 746.519531 739.890625 721.460938 C 740.664062 721.230469 741.46875 721.128906 742.277344 721.179688 C 746.019531 721.398438 748.875 724.621094 748.652344 728.359375 C 748.433594 732.101562 745.21875 734.960938 741.476562 734.738281 Z M 741.476562 734.738281 "></path>
<path fill-rule="nonzero" fill="#e8e0d0" fill-opacity="1" d="M 441.566406 409.011719 C 442.167969 410.28125 442.355469 411.710938 442.105469 413.089844 C 438.734375 431.898438 435.621094 449.519531 437.035156 465.171875 C 438.425781 480.570312 444.210938 493.820312 454.410156 503.390625 C 464.9375 513.261719 480.523438 519.710938 497.75 526.738281 C 501.222656 528.148438 502.886719 532.121094 501.472656 535.589844 C 500.054688 539.058594 496.09375 540.730469 492.621094 539.308594 C 476.054688 532.550781 457.847656 525.21875 445.121094 513.289062 C 432.070312 501.050781 425.148438 484.480469 423.511719 466.390625 C 421.902344 448.570312 425.453125 429.03125 428.742188 410.699219 L 429.277344 414.78125 C 427.683594 411.390625 429.140625 407.351562 432.535156 405.75 C 435.929688 404.160156 439.972656 405.621094 441.566406 409.011719 Z M 441.566406 409.011719 "></path>
<path fill-rule="nonzero" fill="#e8e0d0" fill-opacity="1" d="M 84.878906 501.871094 C 82.503906 502.410156 80.023438 501.621094 78.378906 499.820312 L 78.316406 499.75 L 78.308594 499.75 L 78.371094 499.820312 C 57.929688 477.421875 36.835938 454.359375 20.175781 417.769531 C 16.5 409.691406 13.03125 400.941406 10.042969 391.730469 C -0.417969 359.460938 -5.230469 320.789062 8.242188 285.140625 C 25.40625 239.71875 71.667969 200.820312 112.824219 183.640625 C 154.613281 166.210938 191.523438 170.898438 217.238281 176.128906 C 243 181.371094 258.496094 187.351562 273.679688 193.210938 L 265.867188 195.390625 C 310.410156 137.941406 355.871094 79.171875 426.300781 41.128906 C 496.679688 3.121094 591.832031 -14.160156 686.476562 13.78125 C 780.867188 41.640625 874.527344 114.441406 923.066406 204.710938 C 933.113281 223.398438 941.207031 242.800781 947.621094 262.570312 C 972.242188 338.480469 972.144531 420.101562 962.371094 488.738281 C 956.5625 529.539062 947.320312 565.851562 937.832031 603.140625 C 927.585938 643.398438 917.035156 684.898438 909.886719 735.109375 C 909.589844 737.191406 909.3125 739.191406 909.027344 741.289062 C 895.917969 838.558594 895.855469 968.191406 928.332031 1068.320312 C 929.410156 1071.640625 930.53125 1074.960938 931.683594 1078.210938 C 967.398438 1179.28125 1037.898438 1245.96875 1131.789062 1251.921875 C 1177.640625 1254.828125 1229.480469 1243.390625 1285.628906 1230.941406 C 1345.410156 1217.691406 1409.691406 1203.410156 1474.179688 1205.898438 C 1599.121094 1210.730469 1723.519531 1278.300781 1825.980469 1387.609375 C 1890.511719 1456.449219 1946.460938 1542 1995.980469 1617.691406 C 2025.121094 1662.21875 2051.960938 1703.238281 2077.179688 1735.859375 C 2145.039062 1823.65625 2200.519531 1849.84375 2261.96875 1855.6875 C 2324.25 1861.605469 2392.980469 1846.585938 2447.519531 1808.667969 C 2474.078125 1790.207031 2497.441406 1766.226562 2518.171875 1744.921875 C 2533.839844 1728.820312 2548.359375 1713.851562 2561.300781 1704.859375 C 2566.300781 1701.378906 2571.359375 1698.578125 2576.429688 1696.96875 C 2597.839844 1690.179688 2612.621094 1705.570312 2620.109375 1728.691406 C 2626.761719 1749.171875 2629.128906 1778.558594 2626.578125 1814.328125 C 2621.121094 1891.089844 2592.78125 2000.523438 2531.511719 2079.015625 C 2470.078125 2157.710938 2376.21875 2204.46875 2277.089844 2233.601562 C 2177.910156 2262.75 2072.578125 2274.488281 1967.96875 2286.167969 C 1964.238281 2286.585938 1960.878906 2283.902344 1960.46875 2280.175781 C 1960.050781 2276.449219 1962.730469 2273.089844 1966.460938 2272.675781 C 2071.300781 2260.96875 2175.421875 2249.328125 2273.261719 2220.574219 C 2371.140625 2191.808594 2461.878906 2146.152344 2520.808594 2070.660156 C 2579.898438 1994.957031 2607.699219 1888.417969 2613.039062 1813.363281 C 2615.519531 1778.421875 2613.078125 1751.003906 2607.199219 1732.878906 C 2600.328125 1711.710938 2590.589844 1706.71875 2580.539062 1709.921875 C 2577.230469 1710.960938 2573.421875 1712.96875 2569.050781 1716.011719 C 2557.441406 1724.078125 2543.941406 1737.910156 2527.898438 1754.390625 C 2507.320312 1775.550781 2483.070312 1800.488281 2455.269531 1819.816406 C 2397.820312 1859.753906 2325.828125 1875.394531 2260.691406 1869.203125 C 2194.710938 1862.933594 2136.058594 1834.238281 2066.429688 1744.167969 C 2040.820312 1711.03125 2013.660156 1669.511719 1984.621094 1625.121094 C 1934.96875 1549.230469 1879.648438 1464.71875 1816.070312 1396.890625 C 1715.289062 1289.371094 1594.039062 1224.121094 1473.660156 1219.46875 C 1411.210938 1217.058594 1348.648438 1230.890625 1288.570312 1244.199219 C 1232.960938 1256.53125 1179.089844 1268.519531 1130.929688 1265.46875 C 1029.988281 1259.070312 955.800781 1187.210938 918.878906 1082.738281 C 917.691406 1079.371094 916.527344 1075.941406 915.414062 1072.511719 C 882.066406 969.691406 882.320312 837.789062 895.570312 739.480469 C 895.859375 737.359375 896.144531 735.289062 896.441406 733.199219 C 903.707031 682.179688 914.433594 640.03125 924.671875 599.800781 C 934.179688 562.429688 943.238281 526.800781 948.929688 486.820312 C 958.519531 419.460938 958.488281 340.078125 934.707031 266.769531 C 928.523438 247.699219 920.738281 229.058594 911.105469 211.140625 C 864.363281 124.210938 773.707031 53.679688 682.632812 26.800781 C 591.808594 -0.0117188 500.34375 16.570312 432.753906 53.070312 C 365.21875 89.558594 321.371094 145.960938 276.597656 203.710938 C 274.757812 206.078125 271.585938 206.960938 268.785156 205.878906 C 253.808594 200.101562 239.164062 194.441406 214.53125 189.441406 C 189.863281 184.421875 156.152344 180.28125 118.054688 196.171875 C 79.328125 212.328125 36.441406 248.929688 20.945312 289.941406 C 8.984375 321.589844 13 356.820312 22.960938 387.53125 C 25.777344 396.21875 29.050781 404.488281 32.535156 412.140625 C 48.222656 446.601562 67.984375 468.300781 88.402344 490.660156 L 88.464844 490.730469 L 88.472656 490.738281 L 81.910156 488.621094 C 85.570312 487.808594 89.199219 490.109375 90.019531 493.761719 C 90.839844 497.421875 88.539062 501.058594 84.878906 501.871094 Z M 84.878906 501.871094 "></path>
<path fill-rule="nonzero" fill="#e8e0d0" fill-opacity="1" d="M 1945.148438 1778.371094 C 1946.308594 1776.691406 1948.160156 1775.621094 1950.199219 1775.457031 C 1952.230469 1775.296875 1954.230469 1776.058594 1955.648438 1777.53125 C 1998.578125 1822.425781 2043.210938 1868.882812 2051.109375 1950.636719 C 2058.910156 2031.429688 2030.78125 2146.082031 1994.121094 2231.628906 C 1977.820312 2269.671875 1959.789062 2302.066406 1943.378906 2331.554688 C 1929.378906 2356.710938 1916.648438 2379.601562 1906.890625 2402.371094 C 1902.230469 2413.242188 1898.28125 2424.03125 1895.210938 2434.949219 C 1884.449219 2473.230469 1884.339844 2513.90625 1884.269531 2549.660156 C 1884.230469 2570.429688 1884.210938 2589.863281 1881.859375 2605.578125 C 1875.269531 2649.609375 1850.53125 2664.464844 1827.890625 2678.09375 C 1826.339844 2679.027344 1824.46875 2679.300781 1822.710938 2678.855469 C 1820.949219 2678.40625 1819.441406 2677.273438 1818.53125 2675.707031 C 1808.640625 2658.832031 1799.578125 2643.558594 1786.511719 2633.792969 L 1786.929688 2634.082031 L 1786.511719 2633.792969 C 1783.441406 2631.503906 1780.171875 2629.535156 1776.628906 2627.9375 C 1757.71875 2619.398438 1730.960938 2621.183594 1714.761719 2635.582031 C 1698.160156 2650.335938 1691.089844 2679.042969 1683.488281 2711.183594 C 1682.789062 2714.164062 1680.171875 2716.304688 1677.109375 2716.40625 C 1674.050781 2716.507812 1671.300781 2714.546875 1670.398438 2711.617188 L 1670.390625 2711.617188 L 1670.351562 2711.46875 C 1659.179688 2675.167969 1648.589844 2641.3125 1631.980469 2623.035156 C 1629.53125 2620.335938 1626.960938 2618 1624.320312 2616.03125 C 1609.851562 2605.222656 1593.378906 2605.171875 1580.789062 2616.679688 C 1564.390625 2631.667969 1553.449219 2666.070312 1541.75 2703.71875 C 1540.75 2706.933594 1537.550781 2708.929688 1534.230469 2708.410156 C 1530.898438 2707.894531 1528.449219 2705.015625 1528.480469 2701.648438 L 1528.480469 2701.46875 C 1528.769531 2666.539062 1528.910156 2633.980469 1522.589844 2617.039062 C 1520.320312 2610.9375 1517.289062 2607.25 1513.96875 2604.777344 C 1508.519531 2600.699219 1501.601562 2599.285156 1492.738281 2597.628906 C 1489.53125 2597.027344 1487.199219 2594.21875 1487.199219 2590.949219 C 1487.21875 2572.460938 1487.179688 2552.613281 1491.519531 2537.101562 C 1493.058594 2531.574219 1495.128906 2526.675781 1497.191406 2521.792969 C 1499.691406 2515.835938 1502.328125 2509.570312 1504.699219 2501.070312 C 1505.96875 2496.515625 1507.179688 2491.292969 1508.230469 2485.128906 C 1512.878906 2457.835938 1514.488281 2412.324219 1503.308594 2351.195312 C 1499.910156 2332.585938 1495.320312 2312.515625 1490.460938 2291.296875 C 1485.128906 2268 1479.488281 2243.355469 1474.871094 2218.128906 C 1469.890625 2190.878906 1466.070312 2162.820312 1465.121094 2134.78125 C 1462.480469 2057.234375 1481.71875 1980.417969 1518.179688 1921.578125 C 1554.609375 1862.757812 1608.03125 1822.347656 1660.230469 1782.777344 C 1663.21875 1780.511719 1667.480469 1781.097656 1669.738281 1784.085938 C 1672.011719 1787.074219 1671.421875 1791.332031 1668.429688 1793.597656 C 1615.910156 1833.414062 1564.609375 1872.394531 1529.71875 1928.726562 C 1494.828125 1985.039062 1476.128906 2059.144531 1478.691406 2134.320312 C 1479.609375 2161.46875 1483.320312 2188.824219 1488.230469 2215.683594 C 1492.78125 2240.574219 1498.359375 2264.925781 1503.691406 2288.269531 C 1508.539062 2309.414062 1513.199219 2329.796875 1516.671875 2348.75 C 1528.089844 2411.210938 1526.570312 2458.335938 1521.609375 2487.410156 C 1520.480469 2494.023438 1519.179688 2499.703125 1517.78125 2504.722656 C 1515.160156 2514.113281 1512.230469 2521.058594 1509.699219 2527.0625 C 1507.601562 2532.058594 1505.871094 2536.183594 1504.589844 2540.753906 C 1500.871094 2554.09375 1500.800781 2571.84375 1500.78125 2590.960938 L 1495.238281 2584.28125 C 1503.488281 2585.824219 1513.691406 2587.613281 1522.101562 2593.898438 C 1527.679688 2598.066406 1532.210938 2603.972656 1535.320312 2612.296875 C 1542.738281 2632.207031 1542.339844 2668.050781 1542.058594 2701.582031 L 1542.058594 2701.757812 L 1528.789062 2699.691406 C 1539.921875 2663.84375 1551.820312 2624.753906 1571.628906 2606.652344 C 1589.730469 2590.117188 1613.550781 2591.039062 1632.441406 2605.152344 C 1635.808594 2607.667969 1639.019531 2610.59375 1642.03125 2613.902344 C 1661.160156 2634.953125 1672.539062 2672.417969 1683.328125 2707.476562 L 1683.328125 2707.480469 L 1683.378906 2707.625 L 1670.28125 2708.058594 C 1677.480469 2677.585938 1685.210938 2643.679688 1705.730469 2625.433594 C 1726.660156 2606.839844 1759.359375 2605.242188 1782.21875 2615.5625 C 1786.730469 2617.59375 1790.839844 2620.082031 1794.628906 2622.914062 L 1794.21875 2622.625 L 1794.640625 2622.914062 C 1810.320312 2634.625 1820.691406 2652.53125 1830.25 2668.84375 L 1820.890625 2666.457031 C 1842.898438 2653.207031 1862.808594 2641.183594 1868.429688 2603.570312 C 1870.601562 2589.058594 1870.648438 2570.75 1870.691406 2549.636719 C 1870.761719 2514.164062 1870.800781 2471.628906 1882.140625 2431.277344 C 1885.398438 2419.675781 1889.570312 2408.320312 1894.410156 2397.023438 C 1904.5 2373.492188 1917.589844 2349.96875 1931.511719 2324.953125 C 1947.941406 2295.425781 1965.640625 2263.597656 1981.640625 2226.28125 C 2017.871094 2141.726562 2045.089844 2029.515625 2037.589844 1951.941406 C 2030.191406 1875.324219 1988.859375 1831.902344 1945.828125 1786.917969 L 1956.328125 1786.082031 C 1954.199219 1789.167969 1949.96875 1789.945312 1946.878906 1787.816406 C 1943.800781 1785.683594 1943.019531 1781.457031 1945.148438 1778.371094 Z M 1945.148438 1778.371094 "></path>
<path fill-rule="nonzero" fill="#e8e0d0" fill-opacity="1" d="M 1826.898438 2666.257812 C 1828.808594 2667.433594 1830.011719 2669.46875 1830.121094 2671.703125 C 1830.230469 2673.941406 1829.230469 2676.085938 1827.449219 2677.441406 C 1811.101562 2689.878906 1793.871094 2703.042969 1774.238281 2710.875 C 1754.558594 2718.726562 1732.898438 2721.09375 1716.339844 2721.191406 C 1699.589844 2721.289062 1687.691406 2719.054688 1676.269531 2716.921875 L 1679.671875 2716.6875 C 1663.171875 2722.21875 1645.820312 2728.0625 1628.320312 2729.988281 C 1610.679688 2731.929688 1593.179688 2729.890625 1577.109375 2725.671875 C 1561.101562 2721.460938 1546.429688 2715.050781 1532.289062 2708.886719 L 1534.628906 2709.441406 C 1516.839844 2708.464844 1497.160156 2707.476562 1484.300781 2702.308594 C 1469.691406 2696.449219 1463.710938 2685.371094 1463.109375 2669.585938 C 1462.550781 2654.746094 1466.589844 2634.664062 1471.730469 2620.457031 C 1472.660156 2617.882812 1473.628906 2615.484375 1474.640625 2613.230469 C 1479.339844 2602.746094 1484.738281 2595.585938 1489.730469 2588.949219 C 1491.980469 2585.953125 1496.238281 2585.347656 1499.238281 2587.601562 C 1502.230469 2589.855469 1502.839844 2594.113281 1500.589844 2597.109375 C 1495.609375 2603.722656 1491.050781 2609.816406 1487.039062 2618.78125 C 1486.160156 2620.722656 1485.320312 2622.816406 1484.5 2625.078125 C 1479.78125 2638.121094 1476.199219 2656.429688 1476.679688 2669.074219 C 1477.121094 2680.773438 1480.808594 2686.277344 1489.359375 2689.707031 C 1499.628906 2693.835938 1516.570312 2694.851562 1535.378906 2695.882812 C 1536.179688 2695.925781 1536.980469 2696.117188 1537.71875 2696.4375 C 1552 2702.664062 1565.730469 2708.636719 1580.570312 2712.539062 C 1595.359375 2716.425781 1611.171875 2718.214844 1626.828125 2716.492188 C 1642.628906 2714.75 1658.570312 2709.4375 1675.359375 2703.8125 C 1676.449219 2703.445312 1677.628906 2703.363281 1678.761719 2703.574219 C 1690.070312 2705.6875 1700.898438 2707.703125 1716.269531 2707.613281 C 1731.820312 2707.523438 1751.640625 2705.273438 1769.210938 2698.265625 C 1786.820312 2691.238281 1802.578125 2679.296875 1819.230469 2666.632812 L 1819.769531 2677.816406 C 1816.578125 2675.847656 1815.589844 2671.664062 1817.558594 2668.472656 C 1819.53125 2665.28125 1823.710938 2664.289062 1826.898438 2666.257812 Z M 1826.898438 2666.257812 "></path>
<path fill-rule="nonzero" fill="#e8e0d0" fill-opacity="1" d="M 1092.128906 1781.242188 C 1103.949219 1806.65625 1115.800781 1832.210938 1129.429688 1897.007812 C 1142.980469 1961.441406 1158.398438 2065.15625 1160.480469 2143.980469 C 1161.46875 2181.558594 1159.429688 2213.417969 1157.460938 2244.136719 C 1155.601562 2273.277344 1153.808594 2301.335938 1154.640625 2332.65625 C 1154.769531 2337.78125 1154.980469 2342.996094 1155.261719 2348.308594 C 1156.800781 2376.710938 1160.648438 2408.175781 1164.519531 2439.773438 C 1168.339844 2470.917969 1172.179688 2502.195312 1173.691406 2530.238281 C 1174.539062 2545.964844 1174.671875 2560.816406 1173.628906 2574.179688 C 1168.769531 2636.347656 1138.679688 2664.195312 1110.089844 2690.722656 C 1107.441406 2693.171875 1103.351562 2693.132812 1100.761719 2690.632812 C 1074.230469 2665.074219 1049.710938 2641.730469 1026.679688 2635.839844 C 1016.511719 2633.242188 1006.5 2634.085938 997.285156 2637.566406 L 997.289062 2637.566406 C 986.464844 2641.65625 976.675781 2649.417969 969.265625 2659.59375 C 955.316406 2678.753906 949.855469 2706.191406 944.117188 2735.75 C 943.492188 2738.957031 940.671875 2741.269531 937.40625 2741.246094 C 934.136719 2741.222656 931.347656 2738.875 930.769531 2735.65625 C 924.46875 2700.625 918.46875 2668.261719 903.941406 2649.445312 C 891.628906 2633.503906 873.742188 2628.011719 860.199219 2633.128906 C 858.078125 2633.929688 856.023438 2634.996094 854.074219 2636.347656 L 854.070312 2636.347656 C 838.445312 2647.148438 828.539062 2675.566406 817.65625 2707.96875 C 816.679688 2710.875 813.878906 2712.765625 810.820312 2712.585938 C 807.761719 2712.40625 805.203125 2710.199219 804.574219 2707.203125 C 798.953125 2680.398438 793.472656 2654.339844 787.214844 2636.921875 C 780.824219 2619.125 774.441406 2612.757812 769.785156 2611.285156 C 767.078125 2610.429688 763.710938 2610.804688 759 2612.582031 C 756.023438 2613.707031 752.957031 2615.210938 749.519531 2616.902344 L 749.515625 2616.90625 L 749.507812 2616.910156 C 747.402344 2617.945312 744.910156 2617.816406 742.921875 2616.574219 C 740.929688 2615.332031 739.722656 2613.152344 739.726562 2610.804688 C 739.78125 2571.25 739.800781 2530.535156 746.78125 2500.050781 C 749.082031 2490 752.121094 2481.121094 755.328125 2471.746094 C 759.253906 2460.253906 763.53125 2447.742188 767.492188 2430.449219 C 770.214844 2418.550781 772.800781 2404.339844 774.988281 2386.65625 C 779.78125 2347.925781 782.660156 2292.742188 785.628906 2235.71875 C 787.617188 2197.570312 789.640625 2158.667969 792.3125 2123.621094 C 798.972656 2036.222656 809.640625 1972.90625 820.265625 1909.832031 L 821.046875 1914.292969 C 798.660156 1874.585938 774.621094 1832.417969 780.191406 1785.488281 C 785.695312 1739.121094 820.132812 1689.078125 852.933594 1641.121094 C 855.046875 1638.019531 859.273438 1637.230469 862.367188 1639.351562 C 865.464844 1641.460938 866.257812 1645.691406 864.140625 1648.78125 C 830.601562 1697.828125 798.695312 1744.785156 793.675781 1787.089844 C 788.722656 1828.828125 809.96875 1866.996094 832.875 1907.625 C 833.636719 1908.980469 833.914062 1910.554688 833.65625 1912.085938 C 823.039062 1975.117188 812.464844 2037.914062 805.851562 2124.652344 C 803.195312 2159.511719 801.179688 2198.234375 799.191406 2236.425781 C 796.230469 2293.246094 793.332031 2349.003906 788.464844 2388.324219 C 786.222656 2406.429688 783.5625 2421.097656 780.726562 2433.480469 C 776.597656 2451.507812 772.125 2464.589844 768.175781 2476.136719 C 764.941406 2485.597656 762.136719 2493.828125 760.015625 2503.082031 C 753.453125 2531.746094 753.359375 2570.707031 753.304688 2610.824219 L 743.519531 2604.722656 L 743.527344 2604.71875 L 743.523438 2604.722656 C 746.835938 2603.089844 750.503906 2601.277344 754.203125 2599.878906 C 759.941406 2597.710938 766.832031 2596.109375 773.878906 2598.339844 C 785.214844 2601.921875 793.480469 2614.199219 799.996094 2632.332031 C 806.644531 2650.84375 812.324219 2678 817.863281 2704.414062 L 804.785156 2703.644531 C 814.941406 2673.410156 826.082031 2639.1875 846.351562 2625.175781 L 846.347656 2625.179688 C 849.214844 2623.195312 852.253906 2621.613281 855.402344 2620.425781 C 875.859375 2612.695312 899.679688 2621.707031 914.6875 2641.148438 C 931.714844 2663.199219 938.074219 2699.5625 944.132812 2733.253906 L 930.789062 2733.160156 C 936.355469 2704.492188 942.203125 2673.695312 958.289062 2651.601562 C 967.070312 2639.539062 978.917969 2629.988281 992.488281 2624.863281 C 1004.128906 2620.464844 1017 2619.347656 1030.039062 2622.683594 C 1057.359375 2629.671875 1084.769531 2656.371094 1110.179688 2680.855469 L 1100.851562 2680.765625 C 1129 2654.648438 1155.660156 2629.859375 1160.089844 2573.121094 C 1161.070312 2560.566406 1160.96875 2546.359375 1160.140625 2530.96875 C 1158.648438 2503.480469 1154.878906 2472.691406 1151.050781 2441.425781 C 1147.191406 2409.9375 1143.269531 2377.992188 1141.699219 2349.042969 C 1141.410156 2343.597656 1141.199219 2338.261719 1141.058594 2333.015625 C 1140.210938 2300.992188 1142.058594 2272.359375 1143.910156 2243.269531 C 1145.878906 2212.527344 1147.878906 2181.230469 1146.910156 2144.339844 C 1144.859375 2066.582031 1129.589844 1963.71875 1116.140625 1899.800781 C 1102.769531 1836.242188 1091.308594 1811.679688 1079.820312 1786.96875 C 1078.238281 1783.570312 1079.710938 1779.53125 1083.109375 1777.949219 C 1086.511719 1776.371094 1090.550781 1777.84375 1092.128906 1781.242188 Z M 1092.128906 1781.242188 "></path>
<path fill-rule="nonzero" fill="#e8e0d0" fill-opacity="1" d="M 1154.371094 2377.164062 L 1153.398438 2363.707031 C 1223.339844 2366.585938 1292.960938 2369.449219 1351.429688 2367.867188 C 1409.808594 2366.285156 1457.128906 2360.269531 1504.769531 2354.210938 L 1504.320312 2367.609375 C 1439.96875 2355.070312 1375.359375 2342.484375 1315.890625 2327.085938 C 1256.390625 2311.683594 1202.101562 2293.484375 1148.050781 2275.375 C 1144.488281 2274.179688 1142.570312 2270.332031 1143.769531 2266.777344 C 1144.960938 2263.222656 1148.808594 2261.304688 1152.359375 2262.496094 C 1206.460938 2280.628906 1260.320312 2298.675781 1319.289062 2313.941406 C 1378.289062 2329.214844 1442.480469 2341.726562 1506.921875 2354.28125 C 1510.191406 2354.921875 1512.519531 2357.839844 1512.410156 2361.171875 C 1512.300781 2364.503906 1509.789062 2367.261719 1506.480469 2367.683594 C 1458.859375 2373.738281 1410.929688 2379.839844 1351.800781 2381.441406 C 1292.769531 2383.039062 1222.648438 2380.148438 1152.839844 2377.273438 C 1149.390625 2377.128906 1146.601562 2374.421875 1146.351562 2370.976562 C 1146.109375 2367.53125 1148.480469 2364.449219 1151.878906 2363.816406 C 1155.570312 2363.128906 1159.109375 2365.558594 1159.800781 2369.242188 C 1160.488281 2372.929688 1158.058594 2376.476562 1154.371094 2377.164062 Z M 1154.371094 2377.164062 "></path>
<path fill-rule="nonzero" fill="#e8e0d0" fill-opacity="1" d="M 1096.039062 2688.410156 L 1106.300781 2692.351562 C 1086.359375 2705.316406 1065.621094 2718.839844 1039.640625 2727.199219 C 1038.039062 2727.714844 1036.429688 2728.207031 1034.789062 2728.683594 C 1006.710938 2736.804688 972.730469 2738.734375 939.8125 2740.636719 L 940.222656 2740.601562 C 922.074219 2742.753906 902.804688 2745.089844 880.121094 2739.96875 C 857.796875 2734.929688 832.40625 2722.691406 808.007812 2710.96875 L 812.023438 2711.554688 C 797.421875 2713.898438 779.472656 2717.074219 765.109375 2709.210938 C 750.65625 2701.300781 741.460938 2683.445312 738.242188 2665.632812 C 734.980469 2647.585938 737.613281 2628.378906 740 2610.523438 C 740.5 2606.804688 743.914062 2604.195312 747.632812 2604.691406 C 751.347656 2605.191406 753.957031 2608.605469 753.460938 2612.324219 C 751.007812 2630.664062 748.792969 2647.65625 751.605469 2663.214844 C 754.457031 2679.007812 762.25 2692.167969 771.628906 2697.300781 C 781.089844 2702.480469 793.804688 2700.726562 809.871094 2698.144531 C 811.238281 2697.925781 812.640625 2698.128906 813.886719 2698.730469 C 838.746094 2710.671875 862.609375 2722.09375 883.113281 2726.722656 C 903.253906 2731.269531 920.375 2729.28125 938.621094 2727.117188 C 938.753906 2727.101562 938.890625 2727.085938 939.027344 2727.078125 C 972.390625 2725.152344 1004.691406 2723.25 1031.011719 2715.636719 C 1032.519531 2715.203125 1034.011719 2714.746094 1035.480469 2714.273438 C 1059.488281 2706.546875 1078.800781 2694.035156 1098.890625 2680.964844 C 1100.71875 2679.78125 1103 2679.539062 1105.03125 2680.320312 C 1107.058594 2681.101562 1108.601562 2682.804688 1109.160156 2684.90625 C 1110.128906 2688.53125 1107.96875 2692.25 1104.351562 2693.21875 C 1100.71875 2694.183594 1097 2692.03125 1096.039062 2688.410156 Z M 1096.039062 2688.410156 "></path>
<path fill-rule="nonzero" fill="#e8e0d0" fill-opacity="1" d="M 796.859375 2234.671875 L 796.863281 2234.675781 C 797.480469 2237.460938 796.289062 2240.339844 793.882812 2241.871094 C 791.472656 2243.40625 788.363281 2243.269531 786.097656 2241.53125 C 710.8125 2183.738281 634.753906 2125.390625 568.863281 2036.996094 C 502.960938 1948.59375 447.398438 1830.40625 416.972656 1680.609375 C 386.574219 1530.949219 381.273438 1349.75 393.878906 1193.5 C 406.492188 1037.160156 437.050781 905.699219 467.488281 774.710938 C 468.339844 771.058594 471.988281 768.78125 475.640625 769.628906 C 479.292969 770.480469 481.566406 774.128906 480.714844 777.78125 C 450.265625 908.820312 419.9375 1039.378906 407.414062 1194.601562 C 394.882812 1349.910156 400.195312 1529.789062 430.28125 1677.910156 C 460.339844 1825.898438 515.136719 1942.207031 579.75 2028.882812 C 644.371094 2115.570312 718.980469 2172.886719 794.367188 2230.761719 L 783.605469 2237.617188 C 782.792969 2233.953125 785.101562 2230.328125 788.761719 2229.515625 C 792.421875 2228.703125 796.050781 2231.011719 796.859375 2234.671875 Z M 796.859375 2234.671875 "></path>
<path fill-rule="nonzero" fill="#e8e0d0" fill-opacity="1" d="M 820.617188 1995.40625 C 820.484375 1998.332031 818.492188 2000.84375 815.675781 2001.636719 C 812.855469 2002.429688 809.847656 2001.328125 808.207031 1998.898438 C 748.628906 1910.621094 688.445312 1821.519531 653.347656 1688.921875 C 618.339844 1556.660156 608.363281 1381.441406 609.152344 1245.738281 C 609.941406 1109.839844 621.53125 1012.921875 635.910156 935.679688 C 650.285156 858.449219 667.429688 801 684.488281 743.820312 C 685.5625 740.230469 689.34375 738.191406 692.9375 739.261719 C 696.53125 740.328125 698.574219 744.109375 697.5 747.710938 C 680.453125 804.851562 663.492188 861.710938 649.261719 938.160156 C 635.03125 1014.589844 623.515625 1110.699219 622.730469 1245.820312 C 621.945312 1381.140625 631.929688 1554.929688 666.472656 1685.441406 C 700.929688 1815.609375 759.894531 1903.042969 819.464844 1991.304688 L 807.054688 1994.796875 C 807.222656 1991.050781 810.394531 1988.148438 814.140625 1988.320312 C 817.886719 1988.488281 820.785156 1991.660156 820.617188 1995.40625 Z M 820.617188 1995.40625 "></path>
<path fill-rule="nonzero" fill="#e8e0d0" fill-opacity="1" d="M 570.921875 2036.164062 L 577.652344 2030.289062 C 568.851562 2095.230469 560.105469 2159.792969 557.609375 2224.449219 C 556.699219 2247.988281 556.617188 2271.566406 556.539062 2294.714844 C 556.460938 2316.730469 556.386719 2338.375 555.589844 2359.011719 C 554.925781 2376.203125 553.757812 2392.785156 551.648438 2408.417969 C 550.597656 2416.207031 549.320312 2423.738281 547.898438 2431.011719 C 544.585938 2447.953125 540.480469 2463.609375 536.6875 2478.085938 C 533.324219 2490.933594 530.226562 2502.765625 528.027344 2514.007812 C 526.367188 2522.511719 525.246094 2530.550781 524.917969 2538.261719 C 523.464844 2572.535156 537.644531 2602.171875 557.625 2620.4375 C 577.460938 2638.574219 603.570312 2645.976562 635.542969 2649.359375 C 667.515625 2652.746094 704.144531 2652.015625 741.351562 2651.265625 C 745.101562 2651.1875 748.203125 2654.167969 748.277344 2657.914062 C 748.355469 2661.664062 745.375 2664.765625 741.628906 2664.839844 C 704.640625 2665.585938 667.105469 2666.355469 634.113281 2662.863281 C 601.125 2659.371094 571.5 2651.523438 548.460938 2630.460938 C 525.566406 2609.53125 509.726562 2576.03125 511.351562 2537.6875 C 511.714844 2529.085938 512.957031 2520.332031 514.703125 2511.402344 C 517 2499.660156 520.210938 2487.402344 523.554688 2474.648438 C 527.355469 2460.125 531.351562 2444.867188 534.570312 2428.40625 C 535.949219 2421.359375 537.183594 2414.09375 538.191406 2406.605469 C 540.222656 2391.546875 541.367188 2375.425781 542.019531 2358.488281 C 542.808594 2338.132812 542.882812 2316.734375 542.957031 2294.667969 C 543.039062 2271.558594 543.121094 2247.742188 544.039062 2223.921875 C 546.566406 2158.507812 555.410156 2093.292969 564.195312 2028.464844 C 564.652344 2025.097656 567.527344 2022.585938 570.921875 2022.585938 C 574.671875 2022.585938 577.714844 2025.625 577.714844 2029.375 C 577.714844 2033.125 574.671875 2036.164062 570.921875 2036.164062 Z M 570.921875 2036.164062 "></path>
<path fill-rule="nonzero" fill="#e8e0d0" fill-opacity="1" d="M 149.773438 322.878906 C 173.464844 300.410156 198.875 276.089844 223.960938 268.101562 C 249.109375 260.089844 275.582031 268.179688 284.542969 285.320312 L 284.542969 285.308594 C 284.859375 285.921875 285.152344 286.53125 285.421875 287.148438 C 292.613281 303.820312 282.140625 322.699219 261.558594 331.578125 C 259.683594 332.390625 257.71875 333.121094 255.664062 333.78125 C 230.773438 341.699219 191.105469 337.960938 153.832031 334.570312 C 151.175781 334.320312 148.90625 332.550781 148.03125 330.03125 C 147.15625 327.511719 147.839844 324.710938 149.773438 322.878906 M 159.117188 332.730469 L 155.0625 321.039062 C 193.691406 324.558594 229.929688 327.71875 251.546875 320.839844 C 253.1875 320.320312 254.730469 319.738281 256.179688 319.109375 C 272.667969 312 276.097656 299.820312 272.953125 292.53125 C 272.820312 292.21875 272.671875 291.910156 272.511719 291.609375 C 267.679688 282.371094 249.441406 274.238281 228.078125 281.039062 C 206.648438 287.859375 183.742188 309.371094 159.117188 332.730469 Z M 159.117188 332.730469 "></path>
<path fill-rule="nonzero" fill="#e8e0d0" fill-opacity="1" d="M 262.683594 239.230469 L 261.996094 226.589844 C 279.40625 232.269531 298.761719 238.460938 311.859375 249.949219 C 318.144531 255.46875 322.941406 262.121094 326.183594 269.308594 C 329.867188 277.460938 331.566406 286.328125 331.164062 295.050781 C 330.425781 311.179688 322.433594 326.308594 315.453125 339.75 C 313.726562 343.078125 309.628906 344.378906 306.300781 342.648438 C 302.972656 340.929688 301.675781 336.820312 303.402344 333.5 C 310.71875 319.410156 317.023438 307.011719 317.601562 294.429688 C 317.902344 287.871094 316.625 281.121094 313.808594 274.890625 C 311.335938 269.421875 307.6875 264.359375 302.902344 260.160156 C 292.335938 250.890625 276.03125 245.441406 257.785156 239.5 C 255.117188 238.621094 253.261719 236.210938 253.109375 233.410156 C 252.957031 230.609375 254.539062 228.011719 257.09375 226.851562 C 260.511719 225.308594 264.535156 226.828125 266.078125 230.25 C 267.621094 233.660156 266.101562 237.679688 262.683594 239.230469 Z M 262.683594 239.230469 "></path>
<path fill-rule="nonzero" fill="#e8e0d0" fill-opacity="1" d="M 701.550781 258.28125 C 698.792969 313.710938 651.628906 356.410156 596.207031 353.648438 C 540.78125 350.890625 498.085938 303.730469 500.839844 248.308594 C 503.597656 192.878906 550.761719 150.191406 606.183594 152.941406 C 661.609375 155.691406 704.304688 202.859375 701.550781 258.28125 M 687.988281 257.609375 C 690.371094 209.679688 653.445312 168.890625 605.511719 166.5 C 557.578125 164.121094 516.785156 201.050781 514.402344 248.980469 C 512.019531 296.910156 548.945312 337.710938 596.878906 340.089844 C 644.816406 342.46875 685.605469 305.539062 687.988281 257.609375 Z M 687.988281 257.609375 "></path>
<path fill-rule="nonzero" fill="#e8e0d0" fill-opacity="1" d="M 647.019531 246.171875 L 648.394531 255.480469 C 649.632812 274.558594 644.953125 291.011719 634.359375 304.828125 C 623.671875 318.671875 609.285156 326.398438 591.199219 328.019531 C 573.738281 328.640625 558.460938 322.898438 545.367188 310.808594 C 541.164062 306.898438 537.445312 302.449219 534.207031 297.480469 L 529.804688 289.679688 C 527.144531 284.230469 525.144531 278.378906 523.8125 272.128906 C 520.210938 252.859375 522.859375 235.621094 531.765625 220.441406 C 540.667969 205.261719 553.796875 195.589844 571.144531 191.429688 C 588.699219 188.238281 604.613281 191.789062 618.886719 202.089844 C 633.160156 212.378906 642.539062 227.078125 647.019531 246.171875 "></path>
<path fill-rule="nonzero" fill="#1a1410" fill-opacity="1" d="M 593.273438 262.511719 L 593.894531 266.789062 C 594.425781 275.570312 592.167969 283.148438 587.121094 289.550781 C 582.03125 295.941406 575.207031 299.539062 566.648438 300.339844 C 558.390625 300.671875 551.183594 298.070312 545.023438 292.550781 C 538.859375 286.96875 535.289062 279.628906 534.3125 270.519531 C 533.78125 261.75 536.042969 254.160156 541.089844 247.769531 C 546.179688 241.371094 553.003906 237.78125 561.5625 236.980469 C 569.820312 236.640625 577.027344 239.238281 583.1875 244.769531 C 585.164062 246.558594 586.910156 248.601562 588.425781 250.878906 L 590.488281 254.460938 C 591.730469 256.949219 592.660156 259.640625 593.273438 262.511719 "></path>
<path fill-rule="nonzero" fill="#1a1410" fill-opacity="1" d="M 619.085938 297.25 L 619.335938 299.078125 C 619.5 302.839844 618.355469 306.109375 615.898438 308.898438 C 613.417969 311.691406 610.148438 313.308594 606.082031 313.730469 C 602.164062 313.960938 598.773438 312.921875 595.90625 310.609375 C 593.042969 308.28125 591.421875 305.179688 591.050781 301.28125 C 590.886719 297.519531 592.035156 294.25 594.492188 291.460938 C 596.96875 288.671875 600.242188 287.058594 604.308594 286.628906 C 608.226562 286.410156 611.617188 287.441406 614.480469 289.75 C 615.402344 290.5 616.207031 291.359375 616.90625 292.320312 L 617.84375 293.828125 C 618.410156 294.890625 618.824219 296.03125 619.085938 297.25 "></path>
<path fill-rule="nonzero" fill="#e8e0d0" fill-opacity="1" d="M 561.195312 79.140625 L 553.671875 74.871094 L 553.878906 74.839844 C 576.890625 70.769531 600.921875 66.511719 623.859375 68.109375 C 646.953125 69.71875 669.136719 77.261719 685.554688 90.410156 C 701.898438 103.511719 711.960938 121.820312 721.304688 138.671875 C 723.121094 141.941406 721.9375 146.078125 718.660156 147.898438 C 715.378906 149.71875 711.246094 148.53125 709.429688 145.25 C 699.839844 127.96875 690.96875 112.148438 677.066406 101.011719 C 663.234375 89.929688 643.859375 83.121094 622.914062 81.660156 C 601.941406 80.191406 579.609375 84.078125 556.242188 88.210938 L 556.03125 88.238281 C 552.820312 88.808594 549.664062 87.019531 548.503906 83.96875 C 547.171875 80.460938 548.933594 76.539062 552.4375 75.210938 C 555.941406 73.878906 559.863281 75.640625 561.195312 79.140625 Z M 561.195312 79.140625 "></path>
<path fill-rule="nonzero" fill="#e8e0d0" fill-opacity="1" d="M 1617.570312 1458.871094 C 1594.5 1515.738281 1529.691406 1543.128906 1472.820312 1520.058594 C 1415.949219 1496.988281 1388.558594 1432.179688 1411.628906 1375.308594 C 1434.699219 1318.441406 1499.511719 1291.050781 1556.378906 1314.121094 C 1613.25 1337.191406 1640.640625 1402 1617.570312 1458.871094 M 1604.980469 1453.769531 C 1625.238281 1403.851562 1601.191406 1346.960938 1551.269531 1326.710938 C 1501.359375 1306.449219 1444.46875 1330.5 1424.210938 1380.421875 C 1403.960938 1430.339844 1428.011719 1487.21875 1477.929688 1507.480469 C 1527.851562 1527.730469 1584.730469 1503.679688 1604.980469 1453.769531 Z M 1604.980469 1453.769531 "></path>
<path fill-rule="nonzero" fill="#e8e0d0" fill-opacity="1" d="M 1368.308594 1506.679688 C 1352.800781 1544.890625 1309.25 1563.300781 1271.039062 1547.800781 C 1232.820312 1532.289062 1214.410156 1488.738281 1229.910156 1450.519531 C 1245.421875 1412.308594 1288.96875 1393.898438 1327.179688 1409.398438 C 1365.398438 1424.910156 1383.808594 1468.460938 1368.308594 1506.679688 M 1355.71875 1501.570312 C 1368.410156 1470.308594 1353.351562 1434.671875 1322.078125 1421.980469 C 1290.808594 1409.300781 1255.179688 1424.359375 1242.5 1455.628906 C 1229.808594 1486.890625 1244.878906 1522.53125 1276.140625 1535.210938 C 1307.410156 1547.898438 1343.039062 1532.839844 1355.71875 1501.570312 Z M 1355.71875 1501.570312 "></path>
<path fill-rule="nonzero" fill="#e8e0d0" fill-opacity="1" d="M 1378.589844 1350.601562 C 1370.871094 1374.089844 1345.570312 1386.878906 1322.078125 1379.171875 C 1298.589844 1371.449219 1285.800781 1346.160156 1293.511719 1322.660156 C 1301.21875 1299.171875 1326.519531 1286.378906 1350.019531 1294.089844 C 1373.511719 1301.808594 1386.300781 1327.109375 1378.589844 1350.601562 M 1365.679688 1346.359375 C 1371.058594 1329.988281 1362.148438 1312.371094 1345.78125 1306.988281 C 1329.410156 1301.621094 1311.789062 1310.53125 1306.410156 1326.898438 C 1301.039062 1343.269531 1309.949219 1360.890625 1326.320312 1366.269531 C 1342.679688 1371.640625 1360.308594 1362.730469 1365.679688 1346.359375 Z M 1365.679688 1346.359375 "></path>
<path fill-rule="nonzero" fill="#e8e0d0" fill-opacity="1" d="M 1255.660156 1370.519531 C 1247.859375 1394.269531 1222.289062 1407.191406 1198.539062 1399.398438 C 1174.789062 1391.601562 1161.859375 1366.019531 1169.648438 1342.269531 C 1177.449219 1318.53125 1203.03125 1305.589844 1226.78125 1313.390625 C 1250.53125 1321.191406 1263.460938 1346.769531 1255.660156 1370.519531 M 1242.761719 1366.28125 C 1248.21875 1349.660156 1239.171875 1331.75 1222.539062 1326.289062 C 1205.921875 1320.839844 1188.019531 1329.890625 1182.558594 1346.511719 C 1177.101562 1363.140625 1186.148438 1381.039062 1202.769531 1386.5 C 1219.398438 1391.960938 1237.300781 1382.898438 1242.761719 1366.28125 Z M 1242.761719 1366.28125 "></path>
<path fill-rule="nonzero" fill="#e8e0d0" fill-opacity="1" d="M 1789.609375 1543.621094 C 1758 1572.441406 1709.578125 1571.570312 1681.5 1540.789062 C 1653.421875 1510 1656.988281 1461.699219 1688.589844 1432.871094 C 1720.191406 1404.050781 1768.621094 1404.929688 1796.691406 1435.710938 C 1824.769531 1466.5 1821.210938 1514.789062 1789.609375 1543.621094 M 1780.449219 1533.589844 C 1806.929688 1509.441406 1809.320312 1469.699219 1786.660156 1444.859375 C 1764.011719 1420.019531 1724.21875 1418.761719 1697.738281 1442.910156 C 1671.269531 1467.058594 1668.878906 1506.789062 1691.539062 1531.628906 C 1714.191406 1556.46875 1753.980469 1557.738281 1780.449219 1533.589844 Z M 1780.449219 1533.589844 "></path>
<path fill-rule="nonzero" fill="#e8e0d0" fill-opacity="1" d="M 1643.988281 1610.359375 C 1624.058594 1628.539062 1593.171875 1627.121094 1574.988281 1607.191406 C 1556.820312 1587.261719 1558.230469 1556.371094 1578.160156 1538.191406 C 1598.089844 1520.019531 1628.988281 1521.429688 1647.160156 1541.359375 C 1665.339844 1561.289062 1663.921875 1592.191406 1643.988281 1610.359375 M 1634.839844 1600.328125 C 1649.230469 1587.210938 1650.261719 1564.898438 1637.128906 1550.519531 C 1624.011719 1536.121094 1601.699219 1535.101562 1587.320312 1548.230469 C 1572.929688 1561.351562 1571.898438 1583.648438 1585.019531 1598.039062 C 1598.148438 1612.429688 1620.449219 1613.460938 1634.839844 1600.328125 Z M 1634.839844 1600.328125 "></path>
<path fill-rule="nonzero" fill="#e8e0d0" fill-opacity="1" d="M 1725.128906 1653.609375 C 1705.671875 1657.96875 1686.359375 1645.738281 1681.988281 1626.28125 C 1677.621094 1606.820312 1689.859375 1587.5 1709.308594 1583.128906 C 1728.769531 1578.761719 1748.089844 1591 1752.460938 1610.460938 C 1756.828125 1629.921875 1744.589844 1649.238281 1725.128906 1653.609375 M 1722.160156 1640.359375 C 1734.300781 1637.628906 1741.941406 1625.578125 1739.210938 1613.429688 C 1736.480469 1601.289062 1724.429688 1593.660156 1712.289062 1596.378906 C 1700.140625 1599.109375 1692.511719 1611.160156 1695.230469 1623.308594 C 1697.960938 1635.441406 1710.019531 1643.078125 1722.160156 1640.359375 Z M 1722.160156 1640.359375 "></path>
</g>
  </svg>
  <text x="150" y="108" font-family="&#39;Playfair Display&#39;, Georgia, serif" font-size="96" font-weight="500">
    <tspan fill="#e8e0d0" font-style="normal">i</tspan><tspan fill="#c1440e" font-style="italic">like</tspan><tspan fill="#e8e0d0" font-style="normal">dinosaurs</tspan><tspan fill="#c1440e" font-style="italic">.com</tspan>
  </text>
</svg>